<svg id="visual" viewBox="0 0 1250 636.8" width="1250" height="636.8" xmlns="http://www.w3.org/2000/svg" xmlns:xlink="http://www.w3.org/1999/xlink" version="1.1"><rect x="0" y="0" width="1250" height="636.8" fill="#001220"></rect><path d="M0 466L29.8 450.8C59.7 435.7 119.3 405.3 178.8 392.3C238.3 379.3 297.7 383.7 357.2 394.2C416.7 404.7 476.3 421.3 535.8 434.3C595.3 447.3 654.7 456.7 714.2 460.2C773.7 463.7 833.3 461.3 892.8 448C952.3 434.7 1011.7 410.3 1071.2 397.3C1130.7 384.3 1190.3 382.7 1220.2 381.8L1250 381L1250 638L1220.2 638C1190.3 638 1130.7 638 1071.2 638C1011.7 638 952.3 638 892.8 638C833.3 638 773.7 638 714.2 638C654.7 638 595.3 638 535.8 638C476.3 638 416.7 638 357.2 638C297.7 638 238.3 638 178.8 638C119.3 638 59.7 638 29.8 638L0 638Z" fill="#c62368"></path><path d="M0 496L29.8 489.3C59.7 482.7 119.3 469.3 178.8 470.8C238.3 472.3 297.7 488.7 357.2 483.5C416.7 478.3 476.3 451.7 535.8 452.2C595.3 452.7 654.7 480.3 714.2 485.3C773.7 490.3 833.3 472.7 892.8 460.7C952.3 448.7 1011.7 442.3 1071.2 438.7C1130.7 435 1190.3 434 1220.2 433.5L1250 433L1250 638L1220.2 638C1190.3 638 1130.7 638 1071.2 638C1011.7 638 952.3 638 892.8 638C833.3 638 773.7 638 714.2 638C654.7 638 595.3 638 535.8 638C476.3 638 416.7 638 357.2 638C297.7 638 238.3 638 178.8 638C119.3 638 59.7 638 29.8 638L0 638Z" fill="#d53867"></path><path d="M0 504L29.8 507.3C59.7 510.7 119.3 517.3 178.8 512.2C238.3 507 297.7 490 357.2 488C416.7 486 476.3 499 535.8 501.3C595.3 503.7 654.7 495.3 714.2 490.7C773.7 486 833.3 485 892.8 486.5C952.3 488 1011.7 492 1071.2 494.5C1130.7 497 1190.3 498 1220.2 498.5L1250 499L1250 638L1220.2 638C1190.3 638 1130.7 638 1071.2 638C1011.7 638 952.3 638 892.8 638C833.3 638 773.7 638 714.2 638C654.7 638 595.3 638 535.8 638C476.3 638 416.7 638 357.2 638C297.7 638 238.3 638 178.8 638C119.3 638 59.7 638 29.8 638L0 638Z" fill="#e34c67"></path><path d="M0 544L29.8 540.7C59.7 537.3 119.3 530.7 178.8 533.3C238.3 536 297.7 548 357.2 551.2C416.7 554.3 476.3 548.7 535.8 543.3C595.3 538 654.7 533 714.2 534.7C773.7 536.3 833.3 544.7 892.8 552C952.3 559.3 1011.7 565.7 1071.2 567C1130.7 568.3 1190.3 564.7 1220.2 562.8L1250 561L1250 638L1220.2 638C1190.3 638 1130.7 638 1071.2 638C1011.7 638 952.3 638 892.8 638C833.3 638 773.7 638 714.2 638C654.7 638 595.3 638 535.8 638C476.3 638 416.7 638 357.2 638C297.7 638 238.3 638 178.8 638C119.3 638 59.7 638 29.8 638L0 638Z" fill="#ef5f67"></path><path d="M0 565L29.8 572.2C59.7 579.3 119.3 593.7 178.8 595.8C238.3 598 297.7 588 357.2 586.2C416.7 584.3 476.3 590.7 535.8 590.5C595.3 590.3 654.7 583.7 714.2 579.3C773.7 575 833.3 573 892.8 577.3C952.3 581.7 1011.7 592.3 1071.2 594.8C1130.7 597.3 1190.3 591.7 1220.2 588.8L1250 586L1250 638L1220.2 638C1190.3 638 1130.7 638 1071.2 638C1011.7 638 952.3 638 892.8 638C833.3 638 773.7 638 714.2 638C654.7 638 595.3 638 535.8 638C476.3 638 416.7 638 357.2 638C297.7 638 238.3 638 178.8 638C119.3 638 59.7 638 29.8 638L0 638Z" fill="#fa7268"></path></svg>